<?xml version="1.0" encoding="utf-8"?>
<!-- Generator: Adobe Illustrator 24.0.0, SVG Export Plug-In . SVG Version: 6.00 Build 0)  -->
<svg version="1.1" id="Capa_1" xmlns="http://www.w3.org/2000/svg" xmlns:xlink="http://www.w3.org/1999/xlink" x="0px" y="0px"
	 viewBox="0 0 1500 1000" style="enable-background:new 0 0 1500 1000;" xml:space="preserve">
<style type="text/css">
	.st0{fill:#2E3192;}
	.st1{fill:#FFFFFF;}
	.st2{fill:#E6E6E6;}
</style>
<g>
	<g>
		<path class="st0" d="M514.5,326.7c0,3.2,0,5.8,0,8.3c0,40.1,0.1,80.2,0,120.3c-0.2,65.3-44,117.5-108.4,129.4
			c-74.5,13.8-148.2-44.7-151.3-120.2c-2.8-67,38.7-121.3,104.2-135.8c7-1.6,14.4-2.3,21.6-2.3c42.7-0.2,85.4-0.1,128.1-0.1
			C510.1,326.3,511.6,326.5,514.5,326.7z M464.8,456.4c-0.1-44.5-36-80.5-80.3-80.5c-44.4,0-80.5,36.1-80.4,80.4
			c0.1,44.6,35.8,80.4,80.3,80.4C429,536.7,464.9,500.9,464.8,456.4z"/>
	</g>
	<g>
		<path class="st0" d="M255.5,600c16.2,0,31.9,0,48.2,0c1.6,26.3,11.8,48.1,33,63.9c15.5,11.6,33.1,16.6,52.4,15.6
			c41-2,69-30.9,76.4-79.3c15.8,0,31.7,0,48.9,0c-0.9,41.9-17.5,75.9-50.2,101.7c-42.1,33.1-99.8,36.6-145.7,9.6
			C279,688.3,250.1,637.6,255.5,600z"/>
	</g>
	<g>
		<g>
			<path class="st0" d="M691.4,564.3c-22.6,0-42.7-5.2-60.4-15.6c-17.7-10.4-31.7-24.6-41.9-42.6c-10.3-18-15.4-38.6-15.4-61.7
				c0-23.1,5.1-43.7,15.4-61.7c10.2-18,24.2-32.2,41.9-42.6c17.7-10.4,37.8-15.6,60.4-15.6c22.3,0,42.2,5.2,60,15.6
				c17.7,10.4,31.7,24.6,41.9,42.6c10.2,18,15.4,38.6,15.4,61.7c0,23.1-5.1,43.7-15.4,61.7c-10.3,18-24.2,32.2-41.9,42.6
				C733.6,559.1,713.6,564.3,691.4,564.3z M691.4,523c13.8,0,26.1-3.4,36.9-10.3c10.8-6.9,19.3-16.3,25.5-28.1
				c6.1-11.9,9.1-25.3,8.8-40.2c0.3-15.2-2.6-28.8-8.8-40.6c-6.1-11.9-14.6-21.2-25.5-27.9c-10.8-6.7-23.1-10.1-36.9-10.1
				c-13.8,0-26.1,3.4-37.1,10.3c-11,6.9-19.5,16.3-25.7,28.1c-6.1,11.9-9.1,25.3-8.8,40.2c-0.3,14.9,2.6,28.3,8.8,40.2
				c6.1,11.9,14.7,21.2,25.7,28.1C665.3,519.6,677.6,523,691.4,523z"/>
		</g>
		<g>
			<path class="st0" d="M838.5,373.3v-43.9h146.7v43.9H838.5z M886.4,559.9V270.5h45.2v289.5H886.4z"/>
		</g>
		<g>
			<path class="st0" d="M1113,564.3c-19,0-36.4-5.3-52-15.8c-15.7-10.5-28.2-24.9-37.6-43c-9.4-18.2-14.1-38.7-14.1-61.5
				c0-23.1,4.8-43.7,14.3-61.7c9.5-18,22.4-32.1,38.7-42.4c16.3-10.2,34.5-15.4,54.7-15.4c12,0,23,1.8,32.9,5.3
				c10,3.5,18.7,8.4,26.1,14.7c7.5,6.3,13.6,13.5,18.4,21.7c4.8,8.2,7.8,17,9,26.4l-10.1-3.5v-59.7h45.7v230.6h-45.7V505l10.5-3.1
				c-1.8,7.9-5.3,15.6-10.8,23.1c-5.4,7.5-12.3,14.1-20.6,20c-8.3,5.9-17.6,10.5-27.7,14.1C1134.8,562.6,1124.2,564.3,1113,564.3z
				 M1124.9,522.6c13.8,0,25.9-3.4,36.5-10.1c10.5-6.7,18.8-16,24.8-27.9c6-11.9,9-25.4,9-40.6c0-14.9-3-28.3-9-40
				c-6-11.7-14.3-20.9-24.8-27.7c-10.5-6.7-22.7-10.1-36.5-10.1c-13.5,0-25.4,3.4-35.8,10.1c-10.4,6.7-18.6,16-24.6,27.7
				c-6,11.7-9,25-9,40c0,15.2,3,28.8,9,40.6c6,11.9,14.2,21.2,24.6,27.9C1099.5,519.2,1111.4,522.6,1124.9,522.6z"/>
		</g>
	</g>
	<g>
		<g>
			<path class="st0" d="M594.5,685v-51.4h7.2v8.3l-1.1-0.6c0.3-1.4,1.1-2.7,2.3-4c1.3-1.3,2.9-2.3,4.7-3.1c1.9-0.8,3.8-1.2,5.8-1.2
				c3.3,0,6.2,0.8,8.7,2.4c2.5,1.6,4.5,3.8,6,6.6c1.5,2.8,2.2,6,2.2,9.7c0,3.6-0.7,6.8-2.2,9.6c-1.4,2.8-3.4,5.1-6,6.7
				c-2.5,1.6-5.4,2.4-8.6,2.4c-2.1,0-4.2-0.4-6.1-1.3c-2-0.9-3.7-1.9-5-3.3c-1.4-1.3-2.2-2.7-2.6-4.1l1.8-1V685H594.5z M612.5,663.9
				c2.1,0,4-0.5,5.7-1.6c1.7-1.1,3-2.5,3.9-4.3c1-1.8,1.4-3.9,1.4-6.3c0-2.3-0.5-4.4-1.4-6.2c-0.9-1.8-2.2-3.3-3.9-4.3
				c-1.7-1.1-3.6-1.6-5.7-1.6c-2.2,0-4.1,0.5-5.7,1.6c-1.7,1-3,2.5-3.9,4.3s-1.4,3.9-1.4,6.3c0,2.3,0.5,4.4,1.4,6.3
				c1,1.8,2.3,3.3,3.9,4.3C608.4,663.4,610.3,663.9,612.5,663.9z"/>
		</g>
		<g>
			<path class="st0" d="M668.8,670.5c-3.7,0-7-0.8-9.9-2.4c-2.9-1.6-5.1-3.8-6.8-6.5c-1.6-2.8-2.4-5.9-2.4-9.5
				c0-2.9,0.5-5.5,1.4-7.8c0.9-2.3,2.2-4.4,3.8-6.1c1.6-1.7,3.6-3.1,5.9-4c2.3-0.9,4.7-1.4,7.4-1.4c2.3,0,4.5,0.4,6.6,1.3
				c2,0.9,3.8,2.1,5.3,3.7c1.5,1.6,2.6,3.4,3.5,5.6c0.8,2.1,1.2,4.5,1.1,7l-0.1,3h-29.6l-1.6-5.7h25l-1,1.2v-1.7
				c-0.1-1.5-0.6-2.9-1.5-4.1c-0.9-1.2-2-2.1-3.3-2.8c-1.3-0.7-2.8-1-4.3-1c-2.5,0-4.6,0.5-6.3,1.4c-1.7,0.9-3,2.3-3.9,4.1
				c-0.9,1.8-1.3,4.1-1.3,6.7c0,2.5,0.5,4.7,1.6,6.6c1.1,1.9,2.6,3.3,4.5,4.3c1.9,1,4.2,1.5,6.7,1.5c1.8,0,3.5-0.3,5-0.9
				c1.5-0.6,3.2-1.7,5-3.2l3.6,5c-1.1,1.1-2.4,2.1-4,2.9s-3.3,1.5-5,2C672.2,670.3,670.5,670.5,668.8,670.5z"/>
		</g>
		<g>
			<path class="st0" d="M721.2,670.5c-3.3,0-6.3-0.8-8.9-2.5c-2.6-1.6-4.7-3.9-6.2-6.7s-2.3-6.1-2.3-9.7c0-3.6,0.7-6.9,2.2-9.7
				c1.5-2.8,3.5-5.1,6.1-6.7c2.6-1.6,5.5-2.5,8.8-2.5c1.8,0,3.5,0.3,5.2,0.9c1.7,0.6,3.2,1.4,4.5,2.3c1.3,1,2.4,2.1,3.1,3.2
				c0.8,1.2,1.1,2.4,1.1,3.6l-2.1,0.1v-24.2h7.1v51.1h-7.1v-8.6h1.4c0,1.1-0.4,2.2-1.1,3.3c-0.7,1.1-1.7,2.1-2.9,3
				c-1.2,0.9-2.6,1.7-4.2,2.2C724.5,670.2,722.9,670.5,721.2,670.5z M722.2,664.4c2.2,0,4.1-0.6,5.7-1.7c1.7-1.1,3-2.6,3.9-4.5
				c0.9-1.9,1.4-4.1,1.4-6.5c0-2.4-0.5-4.6-1.4-6.5c-0.9-1.9-2.2-3.4-3.9-4.5c-1.7-1.1-3.6-1.7-5.7-1.7c-2.2,0-4.1,0.6-5.7,1.7
				c-1.7,1.1-3,2.6-3.9,4.5c-0.9,1.9-1.4,4.1-1.4,6.5c0,2.4,0.5,4.6,1.4,6.5c0.9,1.9,2.2,3.4,3.9,4.5
				C718.1,663.8,720,664.4,722.2,664.4z"/>
		</g>
		<g>
			<path class="st0" d="M762.1,628l-2.3-3.5l9.9-8.6l4.5,5.7L762.1,628z M763.5,669.8v-36.2h7.1v36.2H763.5z"/>
		</g>
		<g>
			<path class="st0" d="M824.3,640.5v-6.9h23v6.9H824.3z M831.8,669.8v-45.5h7.1v45.5H831.8z"/>
		</g>
		<g>
			<path class="st0" d="M880.3,670.5c-2.6,0-4.8-0.6-6.7-1.8c-1.9-1.2-3.4-2.9-4.4-5s-1.6-4.7-1.6-7.7v-22.4h7.1V654
				c0,2.1,0.3,3.9,1,5.5c0.7,1.5,1.6,2.7,2.9,3.6c1.3,0.8,2.8,1.2,4.6,1.2c1.3,0,2.6-0.2,3.7-0.7c1.1-0.4,2.1-1,2.9-1.8
				c0.8-0.8,1.4-1.7,1.9-2.8c0.5-1.1,0.7-2.3,0.7-3.6v-21.8h7.1v36.2h-7.1v-7.6l1.2-0.8c-0.6,1.7-1.5,3.2-2.8,4.6
				c-1.3,1.4-2.9,2.5-4.7,3.3S882.4,670.5,880.3,670.5z"/>
		</g>
		<g>
			<path class="st0" d="M956.4,669.8v-51.1h7.1v51.1H956.4z"/>
		</g>
		<g>
			<path class="st0" d="M1000.7,670.5c-3,0-5.7-0.8-8.2-2.5c-2.5-1.7-4.4-3.9-5.9-6.8c-1.5-2.9-2.2-6.1-2.2-9.7
				c0-3.6,0.7-6.9,2.2-9.7c1.5-2.8,3.5-5,6.1-6.7c2.6-1.6,5.4-2.4,8.6-2.4c1.9,0,3.6,0.3,5.2,0.8c1.6,0.6,2.9,1.3,4.1,2.3
				c1.2,1,2.1,2.1,2.9,3.4c0.8,1.3,1.2,2.7,1.4,4.1l-1.6-0.6v-9.4h7.2v36.2h-7.2v-8.6l1.7-0.5c-0.3,1.2-0.8,2.5-1.7,3.6
				s-1.9,2.2-3.2,3.1c-1.3,0.9-2.8,1.7-4.3,2.2C1004.1,670.2,1002.4,670.5,1000.7,670.5z M1002.5,664c2.2,0,4.1-0.5,5.7-1.6
				c1.7-1.1,3-2.5,3.9-4.4c0.9-1.9,1.4-4,1.4-6.4c0-2.3-0.5-4.4-1.4-6.3c-0.9-1.8-2.2-3.3-3.9-4.3c-1.7-1.1-3.6-1.6-5.7-1.6
				c-2.1,0-4,0.5-5.6,1.6c-1.6,1.1-2.9,2.5-3.9,4.3c-0.9,1.8-1.4,3.9-1.4,6.3c0,2.4,0.5,4.5,1.4,6.4c0.9,1.9,2.2,3.3,3.9,4.4
				C998.5,663.4,1000.4,664,1002.5,664z"/>
		</g>
		<g>
			<path class="st0" d="M1055.2,669.8l-15.3-36.2h7.7l11,27.1l-1.3,0.6l11.8-27.7h7.3l-16.1,36.2H1055.2z"/>
		</g>
		<g>
			<path class="st0" d="M1109.6,670.5c-3,0-5.7-0.8-8.2-2.5c-2.5-1.7-4.4-3.9-5.9-6.8c-1.5-2.9-2.2-6.1-2.2-9.7
				c0-3.6,0.7-6.9,2.2-9.7c1.5-2.8,3.5-5,6.1-6.7c2.6-1.6,5.4-2.4,8.6-2.4c1.9,0,3.6,0.3,5.2,0.8c1.6,0.6,2.9,1.3,4.1,2.3
				c1.2,1,2.1,2.1,2.9,3.4c0.8,1.3,1.2,2.7,1.4,4.1l-1.6-0.6v-9.4h7.2v36.2h-7.2v-8.6l1.7-0.5c-0.3,1.2-0.8,2.5-1.7,3.6
				s-1.9,2.2-3.2,3.1c-1.3,0.9-2.8,1.7-4.3,2.2C1113,670.2,1111.3,670.5,1109.6,670.5z M1111.5,664c2.2,0,4.1-0.5,5.7-1.6
				c1.7-1.1,3-2.5,3.9-4.4c0.9-1.9,1.4-4,1.4-6.4c0-2.3-0.5-4.4-1.4-6.3c-0.9-1.8-2.2-3.3-3.9-4.3c-1.7-1.1-3.6-1.6-5.7-1.6
				c-2.1,0-4,0.5-5.6,1.6c-1.6,1.1-2.9,2.5-3.9,4.3c-0.9,1.8-1.4,3.9-1.4,6.3c0,2.4,0.5,4.5,1.4,6.4c0.9,1.9,2.2,3.3,3.9,4.4
				C1107.5,663.4,1109.3,664,1111.5,664z"/>
		</g>
		<g>
			<path class="st0" d="M1168.3,670.5c-3.3,0-6.3-0.8-8.9-2.5c-2.6-1.6-4.7-3.9-6.2-6.7c-1.5-2.8-2.3-6.1-2.3-9.7
				c0-3.6,0.7-6.9,2.2-9.7c1.5-2.8,3.5-5.1,6.1-6.7c2.6-1.6,5.5-2.5,8.8-2.5c1.8,0,3.5,0.3,5.2,0.9c1.7,0.6,3.2,1.4,4.5,2.3
				c1.3,1,2.4,2.1,3.1,3.2s1.1,2.4,1.1,3.6l-2.1,0.1v-24.2h7.1v51.1h-7.1v-8.6h1.4c0,1.1-0.4,2.2-1.1,3.3c-0.7,1.1-1.7,2.1-2.9,3
				c-1.2,0.9-2.6,1.7-4.2,2.2C1171.5,670.2,1169.9,670.5,1168.3,670.5z M1169.2,664.4c2.2,0,4.1-0.6,5.7-1.7c1.7-1.1,3-2.6,3.9-4.5
				c0.9-1.9,1.4-4.1,1.4-6.5c0-2.4-0.5-4.6-1.4-6.5c-0.9-1.9-2.2-3.4-3.9-4.5c-1.7-1.1-3.6-1.7-5.7-1.7c-2.2,0-4.1,0.6-5.7,1.7
				c-1.7,1.1-3,2.6-3.9,4.5c-0.9,1.9-1.4,4.1-1.4,6.5c0,2.4,0.5,4.6,1.4,6.5c0.9,1.9,2.2,3.4,3.9,4.5
				C1165.1,663.8,1167.1,664.4,1169.2,664.4z"/>
		</g>
		<g>
			<path class="st0" d="M1227,670.5c-3.5,0-6.7-0.8-9.5-2.5c-2.8-1.6-5-3.9-6.6-6.7c-1.6-2.8-2.4-6.1-2.4-9.7c0-3.6,0.8-6.9,2.4-9.7
				c1.6-2.8,3.8-5.1,6.6-6.7c2.8-1.6,5.9-2.5,9.5-2.5c3.5,0,6.6,0.8,9.4,2.5c2.8,1.6,5,3.9,6.6,6.7s2.4,6.1,2.4,9.7
				c0,3.6-0.8,6.9-2.4,9.7s-3.8,5.1-6.6,6.7C1233.6,669.7,1230.5,670.5,1227,670.5z M1227,664c2.2,0,4.1-0.5,5.8-1.6
				c1.7-1.1,3-2.6,4-4.4c1-1.9,1.4-4,1.4-6.3c0-2.4-0.4-4.5-1.4-6.4s-2.3-3.3-4-4.4c-1.7-1.1-3.6-1.6-5.8-1.6
				c-2.2,0-4.1,0.5-5.8,1.6c-1.7,1.1-3.1,2.6-4,4.4c-1,1.9-1.4,4-1.4,6.3c0,2.3,0.4,4.5,1.4,6.3c1,1.9,2.3,3.3,4,4.4
				C1222.9,663.5,1224.8,664,1227,664z"/>
		</g>
	</g>
</g>
</svg>
